<?xml version="1.0" standalone="no"?>
<!DOCTYPE svg PUBLIC "-//W3C//DTD SVG 20010904//EN"
 "http://www.w3.org/TR/2001/REC-SVG-20010904/DTD/svg10.dtd">
<svg version="1.0" xmlns="http://www.w3.org/2000/svg"
 width="4330.000000pt" height="820.000000pt" viewBox="0 0 4330.000000 820.000000"
 preserveAspectRatio="xMidYMid meet">

<g transform="translate(0.000000,820.000000) scale(0.100000,-0.100000)"
fill="#000000" stroke="none">
<path d="M8235 6689 c-679 -64 -1290 -438 -1675 -1024 -79 -121 -184 -343
-235 -497 -168 -511 -152 -1039 47 -1541 133 -337 358 -645 654 -895 197 -166
518 -337 784 -416 75 -23 88 -30 110 -63 69 -103 330 -333 535 -472 403 -274
812 -435 1220 -481 177 -20 124 -57 544 374 204 209 370 381 368 382 -1 1 -31
-3 -67 -8 -111 -17 -441 -13 -573 6 -302 43 -550 136 -678 254 l-52 48 59 24
c32 13 107 47 166 77 641 318 1092 923 1213 1628 58 336 32 713 -71 1044 -314
1006 -1297 1659 -2349 1560z m432 -924 c106 -17 278 -72 367 -117 314 -158
556 -437 669 -768 49 -144 62 -231 62 -420 0 -189 -13 -275 -62 -420 -113
-332 -354 -609 -669 -768 -92 -46 -264 -101 -376 -118 -125 -20 -375 -14 -488
11 -491 110 -873 478 -1004 965 -53 199 -53 461 0 660 86 318 284 596 554 774
141 94 332 170 495 199 108 20 337 21 452 2z"/>
<path d="M33590 6675 c-477 -66 -916 -278 -1254 -605 -369 -357 -592 -790
-667 -1295 -22 -148 -26 -434 -9 -575 51 -411 195 -770 439 -1094 95 -126 226
-264 239 -251 6 6 130 174 275 374 l264 364 -58 81 c-112 154 -196 345 -235
531 -26 122 -26 383 0 505 79 379 304 696 631 892 99 60 226 110 360 144 134
35 384 44 521 20 75 -13 206 -48 270 -73 7 -2 123 150 274 359 145 200 268
369 273 376 24 30 -373 180 -588 221 -60 12 -150 26 -200 31 -123 13 -419 10
-535 -5z"/>
<path d="M25100 4470 l0 -2180 460 0 460 0 2 1398 3 1397 1075 -1398 1074
-1397 403 0 403 0 0 2175 0 2175 -455 0 -455 0 -2 -1355 -3 -1354 -170 222
c-94 122 -563 734 -1043 1360 l-873 1137 -440 0 -439 0 0 -2180z"/>
<path d="M38383 6637 c2 -7 349 -480 770 -1052 467 -633 763 -1043 758 -1049
-4 -6 -367 -501 -806 -1101 -439 -600 -809 -1105 -823 -1122 l-24 -33 568 0
569 0 545 741 c300 407 547 742 551 744 3 2 251 -330 551 -738 l545 -742 566
-3 c312 -1 567 0 567 2 0 3 -359 490 -797 1083 -439 593 -815 1101 -835 1129
l-37 51 764 1041 c421 573 765 1046 765 1052 0 7 -184 9 -562 8 l-562 -3 -239
-325 c-132 -179 -351 -477 -487 -662 l-248 -338 -483 658 c-265 361 -487 660
-493 664 -6 4 -262 8 -570 8 -450 0 -557 -2 -553 -13z"/>
<path d="M450 4460 l0 -2180 1445 0 1445 0 0 435 0 435 -985 0 -985 0 0 440 0
440 925 0 925 0 0 430 0 430 -925 0 -925 0 0 440 0 440 955 0 955 0 0 435 0
435 -1415 0 -1415 0 0 -2180z"/>
<path d="M13380 5351 c0 -794 4 -1329 10 -1392 44 -446 238 -855 556 -1173
310 -311 698 -499 1134 -551 797 -95 1570 323 1933 1045 110 218 170 422 196
662 7 63 11 551 11 1398 l0 1300 -455 0 -454 0 -4 -1317 c-3 -1211 -5 -1324
-21 -1391 -89 -373 -349 -650 -711 -759 -83 -25 -104 -27 -270 -27 -158 -1
-189 2 -259 22 -247 71 -447 214 -580 416 -62 93 -96 166 -134 286 l-27 85 -3
1343 -2 1342 -460 0 -460 0 0 -1289z"/>
<path d="M20770 4460 l0 -2180 460 0 460 0 0 2180 0 2180 -460 0 -460 0 0
-2180z"/>
<path d="M35185 5691 c-149 -205 -270 -377 -269 -384 1 -7 27 -48 59 -92 152
-211 235 -478 235 -752 0 -190 -30 -344 -100 -512 -142 -345 -444 -626 -801
-745 -158 -53 -282 -70 -469 -63 -154 6 -239 20 -374 63 -57 18 -58 18 -73 -1
-107 -143 -523 -727 -523 -733 0 -12 167 -85 294 -129 125 -43 264 -77 409
-100 156 -24 479 -24 637 0 495 78 907 285 1256 632 353 351 563 769 641 1275
12 80 17 174 17 310 0 357 -66 651 -218 965 -101 210 -225 392 -384 564 l-68
75 -269 -373z"/>
</g>
</svg>
