<?xml version="1.0" encoding="UTF-8"?>
<svg xmlns="http://www.w3.org/2000/svg" width="400" height="200" viewBox="0 0 400 200">
  <svg x="30.000000" y="64.018552" width="340.000000" height="71.962896" viewBox="0 0 1092.47 231.227" preserveAspectRatio="xMidYMid meet"><ns0:metadata xmlns:dc="http://purl.org/dc/elements/1.1/" xmlns:ns0="http://www.w3.org/2000/svg" xmlns:ns2="http://creativecommons.org/ns#" xmlns:rdf="http://www.w3.org/1999/02/22-rdf-syntax-ns#" id="metadata8">
  <rdf:RDF>
   <ns2:Work rdf:about="">
    <dc:format>
     image/svg+xml
    </dc:format>
    <dc:type rdf:resource="http://purl.org/dc/dcmitype/StillImage">
    </dc:type>
   </ns2:Work>
  </rdf:RDF>
 </ns0:metadata>
 <ns0:defs xmlns:ns0="http://www.w3.org/2000/svg" id="defs6">
 </ns0:defs>
 <ns0:g xmlns:ns0="http://www.w3.org/2000/svg" transform="matrix(1.3333333,0,0,-1.3333333,0,231.22667)" id="g10">
  <ns0:g transform="scale(0.1)" id="g12">
   <ns0:path id="path14" style="fill:#15223a;fill-opacity:1;fill-rule:nonzero;stroke:none" d="m 6637.98,1140.26 c 0,160.78 -243.68,160.78 -243.68,0 0,-160.772 243.68,-160.772 243.68,0 M 6415.58,76.9102 h 197.61 c 6.14,0 11.14,5 11.14,11.1406 V 886.488 c 0,6.157 -5,11.141 -11.14,11.141 h -197.61 c -6.16,0 -11.14,-4.984 -11.14,-11.141 V 88.0508 c 0,-6.1406 4.98,-11.1406 11.14,-11.1406 M 3706.31,886.535 c 0.03,6.137 5.01,11.098 11.14,11.098 h 195.74 c 6.16,0 11.14,-4.996 11.14,-11.145 V 88.0508 c 0,-6.1524 -4.98,-11.1289 -11.14,-11.1289 h -195.77 c -6.14,0 -11.13,4.957 -11.14,11.0976 l -0.17,60.1715 C 3637.36,84.6406 3557.04,83.2813 3485.1,82.0586 l -12.25,-0.1602 c -117.27,0 -216.84,36.9106 -287.96,106.7616 -75.02,73.66 -114.67,181.512 -114.67,311.852 0,250.59 159.84,412.488 407.22,412.488 l 3.82,-0.012 c 78.05,0 158.56,-7.941 224.89,-60.265 z m -42.4,-530.644 c 33.13,38.711 47.7,91.007 47.7,147.269 0,102.738 -62.88,209.899 -213.57,209.899 -124.39,0 -207.94,-85.399 -207.94,-212.547 0,-128.043 83.55,-214.082 207.94,-214.082 63.42,0 128.87,26.261 165.87,69.461 M 6284.89,76.9102 c 6.17,-0.0196 11.19,4.9687 11.19,11.1289 l -0.01,178.7309 c 0,6.16 -4.97,11.14 -11.12,11.14 -20.05,0.012 -83.82,0.078 -97.04,0.66 -57.21,2.45 -82.71,30.602 -82.71,91.25 V 675 h 179.74 c 6.15,0 11.14,4.98 11.14,11.129 v 198.508 c 0,6.152 -4.99,11.136 -11.14,11.136 h -178.22 v 173.637 c 0,6.14 -4.98,11.13 -11.13,11.13 h -197.75 c -6.15,0 -11.15,-4.99 -11.15,-11.13 l 0.16,-699.59 c 0,-186.101 104.89,-292.8317 288.56,-292.8317 l 36.5,-0.0586 z M 7306.62,332.961 c -4.1,4.32 -10.73,4.559 -15.35,0.801 -38.65,-31.461 -87.03,-49.313 -134.32,-49.313 -119.84,0 -203.52,86.231 -203.52,209.711 0,123.461 83.68,209.699 203.52,209.699 47.29,0 95.67,-17.871 134.32,-49.308 4.62,-3.75 11.25,-3.52 15.35,0.801 l 126.64,133.492 c 4.28,4.519 4.11,11.777 -0.42,16.054 -81.51,76.911 -165.59,109.875 -278.99,109.875 -256.45,0 -422.17,-165.109 -422.17,-420.613 0,-255.512 165.72,-420.6287 422.17,-420.6287 113.4,0 197.48,32.9807 278.99,109.8787 4.53,4.281 4.7,11.539 0.42,16.051 z M 3122.01,1095.51 v 192.01 c 0,7.69 -6.24,13.94 -13.94,13.94 h -711.33 c -7.69,0 -13.93,-6.25 -13.93,-13.94 V 90.9688 c 0,-7.6875 6.24,-13.9297 13.93,-13.9297 h 192.02 c 7.69,0 13.93,6.2422 13.93,13.9297 V 579.289 c 0,7.699 6.24,13.941 13.94,13.941 h 358.2 c 7.69,0 13.94,6.239 13.94,13.93 v 192.016 c 0,7.707 -6.25,13.933 -13.94,13.933 h -358.2 c -7.7,0 -13.94,6.25 -13.94,13.95 v 240.571 c 0,7.7 6.24,13.94 13.94,13.94 h 491.44 c 7.7,0 13.94,6.24 13.94,13.94 M 5553.7,886.535 c 0.03,6.137 5.02,11.098 11.16,11.098 h 195.73 c 6.16,0 11.14,-4.996 11.14,-11.145 V 88.0508 c 0,-6.1524 -4.98,-11.1289 -11.14,-11.1289 h -195.76 c -6.16,0 -11.14,4.957 -11.15,11.0976 l -0.18,60.1715 c -68.73,-63.5504 -149.05,-64.9097 -221,-66.1324 l -12.24,-0.1602 c -117.28,0 -216.85,36.9106 -287.97,106.7616 -75.02,73.66 -114.68,181.512 -114.68,311.852 0,250.59 159.84,412.488 407.24,412.488 l 3.81,-0.012 c 78.06,0 158.56,-7.941 224.9,-60.265 z m -42.39,-530.644 c 33.13,38.711 47.7,91.007 47.7,147.269 0,102.738 -62.88,209.899 -213.57,209.899 -124.38,0 -207.96,-85.399 -207.96,-212.547 0,-128.043 83.58,-214.082 207.96,-214.082 63.42,0 128.87,26.261 165.87,69.461 m 1984.22,-134.5 c -3.29,-4.43 -2.83,-10.731 1.06,-14.641 116.74,-117.1914 244.81,-133.2187 355.09,-133.2187 155.68,0 272.28,59.4297 319.92,163.0197 14.55,31.597 21.9,65.937 21.9,102.031 0,210.047 -181.28,248.668 -339.25,258.867 -126.05,8.012 -126.05,52.18 -126.05,66.699 0,53.231 85.29,58.981 121.94,58.981 71.01,0 123.28,-17.207 167.77,-55.547 4.71,-4.07 11.75,-3.75 15.81,0.969 l 111.59,129.812 c 4.05,4.7 3.49,11.938 -1.25,15.91 -81.58,68.411 -168.55,96.477 -296.99,96.477 -81.11,0 -161.24,-19.996 -219.86,-54.875 C 7551.44,810.777 7511.39,742.371 7511.39,658 c 0,-146.051 116.59,-235.238 328.61,-251.199 119.81,-6.84 135.17,-41.699 135.17,-71.289 0,-43.801 -57.92,-66.723 -115.12,-66.723 l -5,0.063 c -92.52,1.679 -181.38,35.828 -240.56,91.929 -4.9,4.649 -12.66,4.168 -16.69,-1.281 z m -3009,685.453 c 201.71,0 337.22,-155.879 337.22,-387.895 V 88.0508 c 0,-6.1524 -4.99,-11.1289 -11.13,-11.1289 H 4615 c -6.15,0 -11.13,4.9765 -11.13,11.1289 V 517.41 c 0,90.141 -43.73,186.442 -166.46,186.442 l -4.08,-0.051 C 4339.47,702.18 4260.15,619.191 4260.15,522.57 V 88.0508 c 0,-6.1524 -4.98,-11.1289 -11.13,-11.1289 h -196.07 c -6.14,0 -11.14,4.9765 -11.14,11.1289 V 884.953 c 0,6.156 5,11.137 11.14,11.137 h 189.48 c 6.15,0 11.13,-4.961 11.15,-11.094 l 0.29,-71.023 c 73.85,63.996 146.85,92.871 232.66,92.871">
   </ns0:path>
   <ns0:path id="path16" style="fill:#e62e2b;fill-opacity:1;fill-rule:nonzero;stroke:none" d="m 1453.13,619.582 c 3.81,-1.762 8.31,-0.551 10.57,2.969 l 249.07,385.069 c 3.06,4.77 0.35,10.7 -5.04,12.56 -358.88,123.75 -694.5,-113.93 -1206.718,-126.93 -13.254,0.246 -26.887,-15.66 -17.598,-32.496 L 1036.47,7.35156 c 8.12,-14.36328 27.11,-5.47265 24.83,7.76954 L 942.242,555.512 c -0.992,4.758 2.043,9.078 6.59,10.738 43.098,15.781 356.128,122.121 504.298,53.332 z m 597.22,912.518 -204.84,-318.22 c -4.2,-6.51 -12.77,-9.82 -19.72,-6.31 C 1352.85,1445.42 807.203,1008 325.539,1112.3 c -4.461,0.98 -8.461,3.49 -10.926,7.31 0,0 -232.8278,358.45 -310.43722,477.94 -9.91406,14.93 2.41406,36.23 22.06642,32.7 42.082,-9.61 223.0278,-49.63 363.8868,-59.81 730.661,-39.38 1126.481,398.99 1656.151,-16.44 6.76,-5.31 8.71,-14.7 4.07,-21.9">
   </ns0:path>
  </ns0:g>
 </ns0:g>
</svg>
</svg>
